<svg xmlns="http://www.w3.org/2000/svg" version="1.1" xmlns:xlink="http://www.w3.org/1999/xlink" xmlns:svgjs="http://svgjs.dev/svgjs" width="2000" height="449" viewBox="0 0 2000 449"><g transform="matrix(1,0,0,1,-1.2121212121212466,-0.33285926343273786)"><svg viewBox="0 0 396 89" data-background-color="#111111" preserveAspectRatio="xMidYMid meet" height="449" width="2000" xmlns="http://www.w3.org/2000/svg" xmlns:xlink="http://www.w3.org/1999/xlink"><g id="tight-bounds" transform="matrix(1,0,0,1,0.2400000000000091,0.0659787849565987)"><svg viewBox="0 0 395.52 88.86804243008679" height="88.86804243008679" width="395.52"><g><svg viewBox="0 0 395.52 88.86804243008679" height="88.86804243008679" width="395.52"><g><svg viewBox="0 0 395.52 88.86804243008679" height="88.86804243008679" width="395.52"><g id="textblocktransform"><svg viewBox="0 0 395.52 88.86804243008679" height="88.86804243008679" width="395.52" id="textblock"><g><svg viewBox="0 0 395.52 88.86804243008679" height="88.86804243008679" width="395.52"><g transform="matrix(1,0,0,1,0,0)"><svg width="395.52" viewBox="0 -34.95 155.54 34.95" height="88.86804243008679" data-palette-color="#ffffff"><path d="M0-2.15L4.85-2.15 4.85-34.95 10.75-34.95 31.05-8.85 31.05-34.95 36.95-34.95 36.95-2.15 41.8-2.15 41.8 0 30.55 0 10.75-25.5 10.75 0 0 0 0-2.15ZM77.95-2.15L83.75-2.15 83.75 0 72.6 0 69.1-7.95 51.6-7.95 48.1 0 36.95 0 36.95-2.15 42.75-2.15 57.2-34.95 63.5-34.95 77.95-2.15ZM54-13.4L66.7-13.4 60.35-27.8 54-13.4ZM78.9-2.15L83.75-2.15 83.75-34.95 89.65-34.95 109.95-8.85 109.95-34.95 115.85-34.95 115.85-2.15 120.7-2.15 120.7 0 109.45 0 89.65-25.5 89.65 0 78.9 0 78.9-2.15ZM120.69-2.15L125.54-2.15 125.54-34.95 150.09-34.95 150.09-29.4 131.44-29.4 131.44-20.15 148.19-20.15 148.19-14.9 131.44-14.9 131.44-5.55 150.69-5.55 150.69-2.15 155.54-2.15 155.54 0 120.69 0 120.69-2.15Z" opacity="1" transform="matrix(1,0,0,1,0,0)" fill="#ffffff" class="wordmark-text-0" data-fill-palette-color="primary" id="text-0"></path></svg></g></svg></g></svg></g></svg></g></svg></g><defs></defs></svg><rect width="395.52" height="88.86804243008679" fill="none" stroke="none" visibility="hidden"></rect></g></svg></g></svg>